<?xml version="1.0" encoding="UTF-8" standalone="no"?>
<svg width="10px" height="10px" viewBox="0 0 10 10" version="1.1" xmlns="http://www.w3.org/2000/svg" xmlns:xlink="http://www.w3.org/1999/xlink" xmlns:sketch="http://www.bohemiancoding.com/sketch/ns">
    <!-- Generator: Sketch 3.3.3 (12072) - http://www.bohemiancoding.com/sketch -->
    <title>Shape</title>
    <desc>Created with Sketch.</desc>
    <defs></defs>
    <g id="Page-3" stroke="none" stroke-width="1" fill="none" fill-rule="evenodd" sketch:type="MSPage">
        <g id="iPhone-6-Copy-17" sketch:type="MSArtboardGroup" transform="translate(-16.000000, -127.000000)" fill="#ABC2CF">
            <g id="Cell" sketch:type="MSLayerGroup" transform="translate(0.000000, 64.000000)">
                <g id="Link" transform="translate(16.000000, 62.000000)" sketch:type="MSShapeGroup">
                    <g id="connector3" transform="translate(0.000000, 1.000000)">
                        <path d="M3.66225,7.95938272 L3.15625,8.45567901 C2.717625,8.88506173 2.00425,8.8854321 1.565875,8.45567901 C1.355125,8.2491358 1.239375,7.97481481 1.239375,7.68320988 C1.239375,7.39160494 1.35525,7.11716049 1.56575,6.91061728 L3.42825,5.08555556 C3.81425,4.70753086 4.540375,4.1508642 5.069625,4.66925926 C5.3125,4.90753086 5.70475,4.90592593 5.945875,4.66617284 C6.187125,4.42641975 6.185625,4.03888889 5.94275,3.8008642 C5.043125,2.9191358 3.7135,3.08209877 2.5555,4.21691358 L0.692875,6.04209877 C0.246,6.48024691 0,7.06296296 0,7.68320988 C0,8.30345679 0.246,8.88604938 0.693,9.32419753 C1.152875,9.77481481 1.75675,10 2.360875,10 C2.965125,10 3.56925,9.77481481 4.029375,9.32395062 L4.53575,8.82753086 C4.7785,8.58950617 4.779875,8.20209877 4.538625,7.96222222 C4.29775,7.72259259 3.905125,7.72123457 3.66225,7.95938272 L3.66225,7.95938272 Z M9.30675,0.86962963 C8.3405,-0.0772839506 6.9895,-0.128641975 6.095,0.747901235 L5.46425,1.3662963 C5.221375,1.60444444 5.219875,1.9917284 5.461125,2.23160494 C5.702375,2.47148148 6.094625,2.47283951 6.3375,2.23469136 L6.968,1.61666667 C7.431375,1.16222222 8.038125,1.35061728 8.433875,1.73839506 C8.644875,1.94493827 8.76075,2.21938272 8.76075,2.51098765 C8.76075,2.80271605 8.64475,3.07716049 8.434125,3.2837037 L6.447,5.23061728 C5.538375,6.12098765 5.112125,5.70308642 4.93025,5.52481481 C4.687375,5.28666667 4.29525,5.28814815 4.054,5.52790123 C3.81275,5.76765432 3.81425,6.15518519 4.057125,6.39320988 C4.47425,6.80209877 4.950375,7.00481481 5.4495,7.00481481 C6.060625,7.00481481 6.706125,6.7008642 7.319875,6.09901235 L9.307,4.15209877 C9.75375,3.71395062 10,3.13111111 10,2.5108642 C10,1.8908642 9.75375,1.30802469 9.30675,0.86962963 L9.30675,0.86962963 Z" id="Shape"></path>
                    </g>
                </g>
            </g>
        </g>
    </g>
</svg>